<?xml version="1.0" encoding="iso-8859-1"?>
<!-- Generator: Adobe Illustrator 19.0.0, SVG Export Plug-In . SVG Version: 6.00 Build 0)  -->
<svg version="1.1" id="Capa_1" xmlns="http://www.w3.org/2000/svg" xmlns:xlink="http://www.w3.org/1999/xlink" x="0px" y="0px"
	 viewBox="0 0 512.001 512.001" style="enable-background:new 0 0 512.001 512.001;" xml:space="preserve">
<g>
	<g>
		<path d="M463.543,307.764c-30.838-33.939-70.74-57.402-115.39-67.854l-58.021-13.582L188.259,67.63
			c-2.093-3.261-5.375-5.579-9.148-6.462L110.06,45.005c-5.578-1.304-11.412,0.702-15.007,5.163
			c-3.595,4.461-4.314,10.588-1.851,15.761l61.255,128.643l-47.044-11.012l-39.583-63.686c-4.181-6.727-12.892-9.008-19.833-5.2
			L7.737,136.769c-6.105,3.35-9.077,10.48-7.16,17.175l30.902,107.85c1.489,5.195,5.672,9.177,10.933,10.408l388.559,90.951
			c2.692,0.629,5.372,0.935,8.004,0.935c11.704,0,22.443-6.053,28.669-16.643C475.272,334.475,473.662,318.899,463.543,307.764z"/>
	</g>
</g>
<g>
	<g>
		<path d="M497.093,437.574H255.21c-8.233,0-14.907,6.675-14.907,14.907s6.674,14.907,14.907,14.907h241.884
			c8.233,0,14.907-6.674,14.907-14.907S505.327,437.574,497.093,437.574z"/>
	</g>
</g>
<g>
	<g>
		<path d="M187.87,321.204c-7.798,0-15.268,6.856-14.907,14.907c0.362,8.077,6.55,14.907,14.907,14.907
			c7.798,0,15.268-6.856,14.907-14.907C202.416,328.034,196.228,321.204,187.87,321.204z"/>
	</g>
</g>
<g>
	<g>
		<path d="M239.549,332.277c-7.798,0-15.268,6.856-14.907,14.907c0.362,8.077,6.55,14.907,14.907,14.907
			c7.799,0,15.268-6.856,14.907-14.907C254.095,339.108,247.906,332.277,239.549,332.277z"/>
	</g>
</g>
<g>
</g>
<g>
</g>
<g>
</g>
<g>
</g>
<g>
</g>
<g>
</g>
<g>
</g>
<g>
</g>
<g>
</g>
<g>
</g>
<g>
</g>
<g>
</g>
<g>
</g>
<g>
</g>
<g>
</g>
</svg>
