<?xml version="1.0" encoding="iso-8859-1"?>
<!-- Generator: Adobe Illustrator 19.0.0, SVG Export Plug-In . SVG Version: 6.00 Build 0)  -->
<svg version="1.1" id="Capa_1" xmlns="http://www.w3.org/2000/svg" xmlns:xlink="http://www.w3.org/1999/xlink" x="0px" y="0px"
	 viewBox="0 0 512.001 512.001" style="enable-background:new 0 0 512.001 512.001;" xml:space="preserve">
<g>
	<g>
		<path d="M489.822,164.651c-43.376-16.015-89.984-18.441-134.788-7.019l-58.221,14.843L131.857,77.904
			c-3.39-1.943-7.401-2.49-11.19-1.525L51.38,94.043c-5.598,1.428-9.882,5.936-11.023,11.6c-1.14,5.663,1.066,11.478,5.677,14.96
			l114.64,86.581l-47.206,12.035l-65.035-38.557c-6.867-4.071-15.721-2.063-20.16,4.575L2.536,223.73
			c-3.903,5.837-3.244,13.598,1.586,18.694l77.814,82.1c2.875,3.034,6.837,4.692,10.91,4.692c1.237,0,2.483-0.152,3.713-0.466
			l389.895-99.399c14.7-3.748,24.709-15.96,25.497-31.11C512.74,183.09,504.054,169.906,489.822,164.651z"/>
	</g>
</g>
<g>
	<g>
		<path d="M258.918,406.026H15.031c-8.301,0-15.031,6.73-15.031,15.031c0,8.301,6.73,15.031,15.031,15.031h243.886
			c8.301,0,15.031-6.73,15.031-15.031C273.948,412.756,267.219,406.026,258.918,406.026z"/>
	</g>
</g>
<g>
</g>
<g>
</g>
<g>
</g>
<g>
</g>
<g>
</g>
<g>
</g>
<g>
</g>
<g>
</g>
<g>
</g>
<g>
</g>
<g>
</g>
<g>
</g>
<g>
</g>
<g>
</g>
<g>
</g>
</svg>
